<svg xmlns="http://www.w3.org/2000/svg" viewBox="0 -0.5 24 24" shape-rendering="crispEdges">
<metadata>Made with Pixels to Svg https://codepen.io/shshaw/pen/XbxvNj</metadata>
<path stroke="#212121" d="M0 0h24M0 1h24M0 2h24M0 3h1M3 3h18M23 3h1M0 4h1M5 4h15M23 4h1M0 5h1M6 5h13M23 5h1M0 6h1M7 6h1M17 6h1M23 6h1M0 7h1M23 7h1M0 8h2M23 8h1M0 9h2M23 9h1M0 10h3M22 10h2M0 11h4M21 11h3M0 12h4M21 12h3M0 13h4M21 13h3M0 14h4M21 14h3M0 15h5M20 15h4M0 16h5M20 16h4M0 17h6M19 17h5M0 18h8M17 18h7M0 19h10M15 19h9M0 20h10M15 20h9M0 21h9M16 21h8M0 22h9M16 22h8M0 23h9M16 23h8" />
<path stroke="#000000" d="M1 3h2M21 3h2M1 4h1M3 4h2M20 4h1M22 4h1M1 5h1M5 5h1M19 5h1M22 5h1M1 6h1M6 6h1M8 6h9M18 6h1M22 6h1M1 7h1M7 7h1M17 7h1M22 7h1M2 8h1M22 8h1M2 9h1M22 9h1M3 10h1M21 10h1M4 11h1M20 11h1M4 12h1M20 12h1M4 13h1M20 13h1M4 14h1M20 14h1M5 15h1M19 15h1M5 16h1M19 16h1M6 17h2M17 17h2M8 18h2M15 18h2M10 19h1M14 19h1M10 20h1M14 20h1M9 21h2M14 21h2M9 22h1M15 22h1M9 23h1M15 23h1" />
<path stroke="#141414" d="M2 4h1M21 4h1M2 5h3M20 5h2M2 6h1M5 6h1M19 6h1M21 6h1M2 7h1M6 7h1M8 7h9M18 7h1M21 7h1M3 8h1M7 8h2M16 8h2M21 8h1M3 9h1M21 9h1M4 10h1M20 10h1M5 11h1M19 11h1M5 12h1M19 12h1M5 13h1M19 13h1M5 14h1M19 14h1M6 15h1M18 15h1M6 16h2M17 16h2M8 17h2M15 17h2M10 18h1M14 18h1M11 19h1M13 19h1M11 20h1M13 20h1M11 21h1M13 21h1M10 22h1M14 22h1M10 23h1M14 23h1" />
<path stroke="#3b3b3b" d="M3 6h2M3 7h1M5 7h1M19 7h2M4 8h1M6 8h1M9 8h7M18 8h1M20 8h1M4 9h1M7 9h2M16 9h2M20 9h1M5 10h1M19 10h1M6 11h1M18 11h1M6 12h1M18 12h1M6 13h1M18 13h1M6 14h1M18 14h1M7 15h1M17 15h1M8 16h2M15 16h2M10 17h1M14 17h1M13 18h1M12 19h1M12 20h1M12 21h1M11 22h1M13 22h1M11 23h1M13 23h1" />
<path stroke="#595959" d="M20 6h1M4 7h1M5 8h1M19 8h1M5 9h2M9 9h1M15 9h1M18 9h2M6 10h3M16 10h3M7 11h1M11 11h3M17 11h1M7 12h1M11 12h3M17 12h1M7 13h6M16 13h2M7 14h4M15 14h3M8 15h3M13 15h4M10 16h5M13 17h1M12 22h1M12 23h1" />
<path stroke="#f7f7f7" d="M10 9h5M9 10h7M8 11h3M14 11h3M8 12h3M14 12h3M13 13h3M11 14h4M11 15h2M11 17h2M11 18h2" />
</svg>