<svg xmlns="http://www.w3.org/2000/svg" viewBox="0 0 24 24" shape-rendering="crispEdges"><path fill="#212121" d="M0 0v1h24V0zm0 1v1h24V1zm0 1v1h24V2zm0 1v1h1V3zm3 0v1h18V3zm20 0v1h1V3zM0 4v1h1V4zm5 0v1h15V4zm18 0v1h1V4zM0 5v1h1V5zm6 0v1h13V5zm17 0v1h1V5zM0 6v1h1V6zm7 0v1h1V6zm10 0v1h1V6zm6 0v1h1V6zM0 7v1h1V7zm23 0v1h1V7zM0 8v1h2V8zm23 0v1h1V8zM0 9v1h2V9zm23 0v1h1V9zM0 10v1h3v-1zm22 0v1h2v-1zM0 11v1h4v-1zm21 0v1h3v-1zM0 12v1h4v-1zm21 0v1h3v-1zM0 13v1h4v-1zm21 0v1h3v-1zM0 14v1h4v-1zm21 0v1h3v-1zM0 15v1h5v-1zm20 0v1h4v-1zM0 16v1h5v-1zm20 0v1h4v-1zM0 17v1h6v-1zm19 0v1h5v-1zM0 18v1h8v-1zm17 0v1h7v-1zM0 19v1h10v-1zm15 0v1h9v-1zM0 20v1h10v-1zm15 0v1h9v-1zM0 21v1h9v-1zm16 0v1h8v-1zM0 22v1h9v-1zm16 0v1h8v-1zM0 23v1h9v-1zm16 0v1h8v-1z"/><path d="M1 3v1h2V3zm20 0v1h2V3zM1 4v1h1V4zm2 0v1h2V4zm17 0v1h1V4zm2 0v1h1V4zM1 5v1h1V5zm4 0v1h1V5zm14 0v1h1V5zm3 0v1h1V5zM1 6v1h1V6zm5 0v1h1V6zm2 0v1h9V6zm10 0v1h1V6zm4 0v1h1V6zM1 7v1h1V7zm6 0v1h1V7zm10 0v1h1V7zm5 0v1h1V7zM2 8v1h1V8zm20 0v1h1V8zM2 9v1h1V9zm20 0v1h1V9zM3 10v1h1v-1zm18 0v1h1v-1zM4 11v1h1v-1zm16 0v1h1v-1zM4 12v1h1v-1zm16 0v1h1v-1zM4 13v1h1v-1zm16 0v1h1v-1zM4 14v1h1v-1zm16 0v1h1v-1zM5 15v1h1v-1zm14 0v1h1v-1zM5 16v1h1v-1zm14 0v1h1v-1zM6 17v1h2v-1zm11 0v1h2v-1zm-9 1v1h2v-1zm7 0v1h2v-1zm-5 1v1h1v-1zm4 0v1h1v-1zm-4 1v1h1v-1zm4 0v1h1v-1zm-5 1v1h2v-1zm5 0v1h2v-1zm-5 1v1h1v-1zm6 0v1h1v-1zm-6 1v1h1v-1zm6 0v1h1v-1z"/><path fill="#141414" d="M2 4v1h1V4zm19 0v1h1V4zM2 5v1h3V5zm18 0v1h2V5zM2 6v1h1V6zm3 0v1h1V6zm14 0v1h1V6zm2 0v1h1V6zM2 7v1h1V7zm4 0v1h1V7zm2 0v1h9V7zm10 0v1h1V7zm3 0v1h1V7zM3 8v1h1V8zm4 0v1h2V8zm9 0v1h2V8zm5 0v1h1V8zM3 9v1h1V9zm18 0v1h1V9zM4 10v1h1v-1zm16 0v1h1v-1zM5 11v1h1v-1zm14 0v1h1v-1zM5 12v1h1v-1zm14 0v1h1v-1zM5 13v1h1v-1zm14 0v1h1v-1zM5 14v1h1v-1zm14 0v1h1v-1zM6 15v1h1v-1zm12 0v1h1v-1zM6 16v1h2v-1zm11 0v1h2v-1zm-9 1v1h2v-1zm7 0v1h2v-1zm-5 1v1h1v-1zm4 0v1h1v-1zm-3 1v1h1v-1zm2 0v1h1v-1zm-2 1v1h1v-1zm2 0v1h1v-1zm-2 1v1h1v-1zm2 0v1h1v-1zm-3 1v1h1v-1zm4 0v1h1v-1zm-4 1v1h1v-1zm4 0v1h1v-1z"/><path fill="#3b3b3b" d="M3 6v1h2V6zm0 1v1h1V7zm2 0v1h1V7zm14 0v1h2V7zM4 8v1h1V8zm2 0v1h1V8zm3 0v1h7V8zm9 0v1h1V8zm2 0v1h1V8zM4 9v1h1V9zm3 0v1h2V9zm9 0v1h2V9zm4 0v1h1V9zM5 10v1h1v-1zm14 0v1h1v-1zM6 11v1h1v-1zm12 0v1h1v-1zM6 12v1h1v-1zm12 0v1h1v-1zM6 13v1h1v-1zm12 0v1h1v-1zM6 14v1h1v-1zm12 0v1h1v-1zM7 15v1h1v-1zm10 0v1h1v-1zm-9 1v1h2v-1zm7 0v1h2v-1zm-5 1v1h1v-1zm4 0v1h1v-1zm-1 1v1h1v-1zm-1 1v1h1v-1zm0 1v1h1v-1zm0 1v1h1v-1zm-1 1v1h1v-1zm2 0v1h1v-1zm-2 1v1h1v-1zm2 0v1h1v-1z"/><path fill="#595959" d="M20 6v1h1V6zM4 7v1h1V7zm1 1v1h1V8zm14 0v1h1V8zM5 9v1h2V9zm4 0v1h1V9zm6 0v1h1V9zm3 0v1h2V9zM6 10v1h3v-1zm10 0v1h3v-1zm-9 1v1h1v-1zm4 0v1h3v-1zm6 0v1h1v-1zM7 12v1h1v-1zm4 0v1h3v-1zm6 0v1h1v-1zM7 13v1h6v-1zm9 0v1h2v-1zm-9 1v1h4v-1zm8 0v1h3v-1zm-7 1v1h3v-1zm5 0v1h4v-1zm-3 1v1h5v-1zm3 1v1h1v-1zm-1 5v1h1v-1zm0 1v1h1v-1z"/><path fill="#f7f7f7" d="M10 9v1h5V9zm-1 1v1h7v-1zm-1 1v1h3v-1zm6 0v1h3v-1zm-6 1v1h3v-1zm6 0v1h3v-1zm-1 1v1h3v-1zm-2 1v1h4v-1zm0 1v1h2v-1zm0 2v1h2v-1zm0 1v1h2v-1z"/></svg>